<mxfile host="app.diagrams.net" modified="2024-02-28T19:41:28.213Z" agent="Mozilla/5.0 (Macintosh; Intel Mac OS X 10_15_7) AppleWebKit/537.36 (KHTML, like Gecko) Chrome/122.0.0.0 Safari/537.36" etag="8MCD3LBxYr4GAeivtN_g" version="23.1.5" type="device">
  <diagram name="Page-1" id="gCnUD7mEYQ_j2FZaFz3H">
    <mxGraphModel dx="1434" dy="786" grid="1" gridSize="10" guides="1" tooltips="1" connect="1" arrows="1" fold="1" page="1" pageScale="1" pageWidth="850" pageHeight="1100" math="0" shadow="0">
      <root>
        <mxCell id="0" />
        <mxCell id="1" parent="0" />
        <mxCell id="tbruQ5mkqh9V9yy03NBL-2" value="Application Modeling" style="rounded=0;whiteSpace=wrap;html=1;fillColor=#ffe6cc;strokeColor=#d79b00;" vertex="1" parent="1">
          <mxGeometry x="320" y="40" width="200" height="40" as="geometry" />
        </mxCell>
        <mxCell id="tbruQ5mkqh9V9yy03NBL-4" value="Database Models" style="swimlane;whiteSpace=wrap;html=1;" vertex="1" parent="1">
          <mxGeometry x="40" y="160" width="770" height="400" as="geometry" />
        </mxCell>
        <mxCell id="tbruQ5mkqh9V9yy03NBL-31" style="edgeStyle=orthogonalEdgeStyle;rounded=0;orthogonalLoop=1;jettySize=auto;html=1;entryX=0;entryY=0.5;entryDx=0;entryDy=0;" edge="1" parent="tbruQ5mkqh9V9yy03NBL-4" source="tbruQ5mkqh9V9yy03NBL-5" target="tbruQ5mkqh9V9yy03NBL-29">
          <mxGeometry relative="1" as="geometry" />
        </mxCell>
        <mxCell id="tbruQ5mkqh9V9yy03NBL-32" value="1" style="edgeLabel;html=1;align=center;verticalAlign=middle;resizable=0;points=[];" vertex="1" connectable="0" parent="tbruQ5mkqh9V9yy03NBL-31">
          <mxGeometry x="-0.9071" y="1" relative="1" as="geometry">
            <mxPoint as="offset" />
          </mxGeometry>
        </mxCell>
        <mxCell id="tbruQ5mkqh9V9yy03NBL-33" value="*" style="edgeLabel;html=1;align=center;verticalAlign=middle;resizable=0;points=[];" vertex="1" connectable="0" parent="tbruQ5mkqh9V9yy03NBL-31">
          <mxGeometry x="0.85" y="1" relative="1" as="geometry">
            <mxPoint as="offset" />
          </mxGeometry>
        </mxCell>
        <mxCell id="tbruQ5mkqh9V9yy03NBL-5" value="UserAccount" style="swimlane;fontStyle=0;childLayout=stackLayout;horizontal=1;startSize=30;horizontalStack=0;resizeParent=1;resizeParentMax=0;resizeLast=0;collapsible=1;marginBottom=0;whiteSpace=wrap;html=1;" vertex="1" parent="tbruQ5mkqh9V9yy03NBL-4">
          <mxGeometry x="40" y="80" width="140" height="150" as="geometry" />
        </mxCell>
        <mxCell id="tbruQ5mkqh9V9yy03NBL-8" value="String firstname" style="text;strokeColor=none;fillColor=none;align=left;verticalAlign=middle;spacingLeft=4;spacingRight=4;overflow=hidden;points=[[0,0.5],[1,0.5]];portConstraint=eastwest;rotatable=0;whiteSpace=wrap;html=1;" vertex="1" parent="tbruQ5mkqh9V9yy03NBL-5">
          <mxGeometry y="30" width="140" height="30" as="geometry" />
        </mxCell>
        <mxCell id="tbruQ5mkqh9V9yy03NBL-18" value="String lastname" style="text;strokeColor=none;fillColor=none;align=left;verticalAlign=middle;spacingLeft=4;spacingRight=4;overflow=hidden;points=[[0,0.5],[1,0.5]];portConstraint=eastwest;rotatable=0;whiteSpace=wrap;html=1;" vertex="1" parent="tbruQ5mkqh9V9yy03NBL-5">
          <mxGeometry y="60" width="140" height="30" as="geometry" />
        </mxCell>
        <mxCell id="tbruQ5mkqh9V9yy03NBL-19" value="String email" style="text;strokeColor=none;fillColor=none;align=left;verticalAlign=middle;spacingLeft=4;spacingRight=4;overflow=hidden;points=[[0,0.5],[1,0.5]];portConstraint=eastwest;rotatable=0;whiteSpace=wrap;html=1;" vertex="1" parent="tbruQ5mkqh9V9yy03NBL-5">
          <mxGeometry y="90" width="140" height="30" as="geometry" />
        </mxCell>
        <mxCell id="tbruQ5mkqh9V9yy03NBL-20" value="String password" style="text;strokeColor=none;fillColor=none;align=left;verticalAlign=middle;spacingLeft=4;spacingRight=4;overflow=hidden;points=[[0,0.5],[1,0.5]];portConstraint=eastwest;rotatable=0;whiteSpace=wrap;html=1;" vertex="1" parent="tbruQ5mkqh9V9yy03NBL-5">
          <mxGeometry y="120" width="140" height="30" as="geometry" />
        </mxCell>
        <mxCell id="tbruQ5mkqh9V9yy03NBL-9" value="Notice" style="swimlane;fontStyle=0;childLayout=stackLayout;horizontal=1;startSize=30;horizontalStack=0;resizeParent=1;resizeParentMax=0;resizeLast=0;collapsible=1;marginBottom=0;whiteSpace=wrap;html=1;" vertex="1" parent="tbruQ5mkqh9V9yy03NBL-4">
          <mxGeometry x="305" y="240" width="170" height="120" as="geometry" />
        </mxCell>
        <mxCell id="tbruQ5mkqh9V9yy03NBL-12" value="Type type" style="text;strokeColor=none;fillColor=none;align=left;verticalAlign=middle;spacingLeft=4;spacingRight=4;overflow=hidden;points=[[0,0.5],[1,0.5]];portConstraint=eastwest;rotatable=0;whiteSpace=wrap;html=1;" vertex="1" parent="tbruQ5mkqh9V9yy03NBL-9">
          <mxGeometry y="30" width="170" height="30" as="geometry" />
        </mxCell>
        <mxCell id="tbruQ5mkqh9V9yy03NBL-29" value="LocalDateTime createdAt" style="text;strokeColor=none;fillColor=none;align=left;verticalAlign=middle;spacingLeft=4;spacingRight=4;overflow=hidden;points=[[0,0.5],[1,0.5]];portConstraint=eastwest;rotatable=0;whiteSpace=wrap;html=1;" vertex="1" parent="tbruQ5mkqh9V9yy03NBL-9">
          <mxGeometry y="60" width="170" height="30" as="geometry" />
        </mxCell>
        <mxCell id="tbruQ5mkqh9V9yy03NBL-30" value="List&amp;lt;Tag&amp;gt; tags" style="text;strokeColor=none;fillColor=none;align=left;verticalAlign=middle;spacingLeft=4;spacingRight=4;overflow=hidden;points=[[0,0.5],[1,0.5]];portConstraint=eastwest;rotatable=0;whiteSpace=wrap;html=1;" vertex="1" parent="tbruQ5mkqh9V9yy03NBL-9">
          <mxGeometry y="90" width="170" height="30" as="geometry" />
        </mxCell>
        <mxCell id="tbruQ5mkqh9V9yy03NBL-14" value="Tag" style="swimlane;fontStyle=0;childLayout=stackLayout;horizontal=1;startSize=30;horizontalStack=0;resizeParent=1;resizeParentMax=0;resizeLast=0;collapsible=1;marginBottom=0;whiteSpace=wrap;html=1;" vertex="1" parent="tbruQ5mkqh9V9yy03NBL-4">
          <mxGeometry x="600" y="80" width="140" height="60" as="geometry" />
        </mxCell>
        <mxCell id="tbruQ5mkqh9V9yy03NBL-37" value="String label" style="text;strokeColor=none;fillColor=none;align=left;verticalAlign=middle;spacingLeft=4;spacingRight=4;overflow=hidden;points=[[0,0.5],[1,0.5]];portConstraint=eastwest;rotatable=0;whiteSpace=wrap;html=1;" vertex="1" parent="tbruQ5mkqh9V9yy03NBL-14">
          <mxGeometry y="30" width="140" height="30" as="geometry" />
        </mxCell>
        <mxCell id="tbruQ5mkqh9V9yy03NBL-26" style="edgeStyle=orthogonalEdgeStyle;rounded=0;orthogonalLoop=1;jettySize=auto;html=1;entryX=0.5;entryY=0;entryDx=0;entryDy=0;endArrow=none;endFill=0;" edge="1" parent="tbruQ5mkqh9V9yy03NBL-4" source="tbruQ5mkqh9V9yy03NBL-21" target="tbruQ5mkqh9V9yy03NBL-9">
          <mxGeometry relative="1" as="geometry" />
        </mxCell>
        <mxCell id="tbruQ5mkqh9V9yy03NBL-21" value="NoticeType" style="swimlane;fontStyle=0;childLayout=stackLayout;horizontal=1;startSize=30;horizontalStack=0;resizeParent=1;resizeParentMax=0;resizeLast=0;collapsible=1;marginBottom=0;whiteSpace=wrap;html=1;" vertex="1" parent="tbruQ5mkqh9V9yy03NBL-4">
          <mxGeometry x="320" y="80" width="140" height="90" as="geometry" />
        </mxCell>
        <mxCell id="tbruQ5mkqh9V9yy03NBL-22" value="Link" style="text;strokeColor=none;fillColor=none;align=left;verticalAlign=middle;spacingLeft=4;spacingRight=4;overflow=hidden;points=[[0,0.5],[1,0.5]];portConstraint=eastwest;rotatable=0;whiteSpace=wrap;html=1;" vertex="1" parent="tbruQ5mkqh9V9yy03NBL-21">
          <mxGeometry y="30" width="140" height="30" as="geometry" />
        </mxCell>
        <mxCell id="tbruQ5mkqh9V9yy03NBL-23" value="Image" style="text;strokeColor=none;fillColor=none;align=left;verticalAlign=middle;spacingLeft=4;spacingRight=4;overflow=hidden;points=[[0,0.5],[1,0.5]];portConstraint=eastwest;rotatable=0;whiteSpace=wrap;html=1;" vertex="1" parent="tbruQ5mkqh9V9yy03NBL-21">
          <mxGeometry y="60" width="140" height="30" as="geometry" />
        </mxCell>
        <mxCell id="tbruQ5mkqh9V9yy03NBL-34" style="edgeStyle=orthogonalEdgeStyle;rounded=0;orthogonalLoop=1;jettySize=auto;html=1;entryX=0.571;entryY=1;entryDx=0;entryDy=0;entryPerimeter=0;exitX=1;exitY=0.5;exitDx=0;exitDy=0;endArrow=none;endFill=0;" edge="1" parent="tbruQ5mkqh9V9yy03NBL-4" source="tbruQ5mkqh9V9yy03NBL-29">
          <mxGeometry relative="1" as="geometry">
            <mxPoint x="679.94" y="140" as="targetPoint" />
          </mxGeometry>
        </mxCell>
        <mxCell id="tbruQ5mkqh9V9yy03NBL-35" value="*" style="edgeLabel;html=1;align=center;verticalAlign=middle;resizable=0;points=[];" vertex="1" connectable="0" parent="tbruQ5mkqh9V9yy03NBL-34">
          <mxGeometry x="0.9" y="1" relative="1" as="geometry">
            <mxPoint as="offset" />
          </mxGeometry>
        </mxCell>
        <mxCell id="tbruQ5mkqh9V9yy03NBL-36" value="*" style="edgeLabel;html=1;align=center;verticalAlign=middle;resizable=0;points=[];" vertex="1" connectable="0" parent="tbruQ5mkqh9V9yy03NBL-34">
          <mxGeometry x="-0.9187" y="-1" relative="1" as="geometry">
            <mxPoint as="offset" />
          </mxGeometry>
        </mxCell>
        <mxCell id="tbruQ5mkqh9V9yy03NBL-38" value="&lt;h1&gt;Explanation of the model&lt;/h1&gt;&lt;p style=&quot;font-size: 18px;&quot;&gt;&lt;font style=&quot;font-size: 18px;&quot;&gt;The application&#39;s main goal is to allow users to create some notices and then search for the notices according to the notice&#39;s keywords and creation date. Therefore, we have three main entities in the application.&lt;/font&gt;&lt;/p&gt;&lt;p style=&quot;font-size: 18px;&quot;&gt;&lt;font style=&quot;font-size: 18px;&quot;&gt;* UserAccount: This entity is used to carry user information like first name, and last name. Moreover, this entity is also used to carry authentication information like email and password&lt;/font&gt;&lt;/p&gt;&lt;p style=&quot;font-size: 18px;&quot;&gt;&lt;font style=&quot;font-size: 18px;&quot;&gt;* Notice: The notice which type is given by the NoticeType enum represents the user&#39;s notice. Since a user can have multiple notices, there is a one-to-many relationship between the user and the notices&lt;/font&gt;&lt;/p&gt;&lt;p style=&quot;font-size: 18px;&quot;&gt;&lt;font style=&quot;font-size: 18px;&quot;&gt;* Tag: Finally, to allow search based on Keyword, the Tag entity allows to relate each keyword to a specific notice. Since the same keyword can be used by many Notices and a Notice can have many keywords, there is a many-to-many relationship between Tag and Notice.&lt;/font&gt;&lt;/p&gt;&lt;p&gt;&lt;br&gt;&lt;/p&gt;" style="text;html=1;spacing=5;spacingTop=-20;whiteSpace=wrap;overflow=hidden;rounded=0;" vertex="1" parent="1">
          <mxGeometry x="40" y="600" width="760" height="370" as="geometry" />
        </mxCell>
        <mxCell id="tbruQ5mkqh9V9yy03NBL-39" value="Application Architecture" style="swimlane;whiteSpace=wrap;html=1;" vertex="1" parent="1">
          <mxGeometry x="40" y="1120" width="770" height="460" as="geometry" />
        </mxCell>
        <mxCell id="tbruQ5mkqh9V9yy03NBL-40" value="H2&lt;br&gt;DB" style="strokeWidth=2;html=1;shape=mxgraph.flowchart.database;whiteSpace=wrap;verticalAlign=bottom;" vertex="1" parent="tbruQ5mkqh9V9yy03NBL-39">
          <mxGeometry x="660" y="190" width="50" height="60" as="geometry" />
        </mxCell>
        <mxCell id="tbruQ5mkqh9V9yy03NBL-41" value="" style="rounded=0;whiteSpace=wrap;html=1;" vertex="1" parent="tbruQ5mkqh9V9yy03NBL-39">
          <mxGeometry x="160" y="80" width="400" height="320" as="geometry" />
        </mxCell>
        <mxCell id="tbruQ5mkqh9V9yy03NBL-42" value="" style="rounded=0;whiteSpace=wrap;html=1;fillColor=#d5e8d4;strokeColor=#82b366;" vertex="1" parent="tbruQ5mkqh9V9yy03NBL-39">
          <mxGeometry x="160" y="80" width="110" height="320" as="geometry" />
        </mxCell>
        <mxCell id="tbruQ5mkqh9V9yy03NBL-43" value="Thymeleaf Frontend" style="text;html=1;align=center;verticalAlign=middle;whiteSpace=wrap;rounded=0;rotation=-90;" vertex="1" parent="tbruQ5mkqh9V9yy03NBL-39">
          <mxGeometry x="137.5" y="225" width="155" height="30" as="geometry" />
        </mxCell>
        <mxCell id="tbruQ5mkqh9V9yy03NBL-44" value="Backend" style="rounded=0;whiteSpace=wrap;html=1;fillColor=#dae8fc;strokeColor=#6c8ebf;verticalAlign=top;" vertex="1" parent="tbruQ5mkqh9V9yy03NBL-39">
          <mxGeometry x="270" y="80" width="290" height="320" as="geometry" />
        </mxCell>
        <mxCell id="tbruQ5mkqh9V9yy03NBL-47" style="edgeStyle=orthogonalEdgeStyle;rounded=0;orthogonalLoop=1;jettySize=auto;html=1;entryX=1;entryY=0.5;entryDx=0;entryDy=0;" edge="1" parent="tbruQ5mkqh9V9yy03NBL-39" source="tbruQ5mkqh9V9yy03NBL-45" target="tbruQ5mkqh9V9yy03NBL-42">
          <mxGeometry relative="1" as="geometry" />
        </mxCell>
        <mxCell id="tbruQ5mkqh9V9yy03NBL-61" style="edgeStyle=orthogonalEdgeStyle;rounded=0;orthogonalLoop=1;jettySize=auto;html=1;exitX=0.25;exitY=1;exitDx=0;exitDy=0;entryX=0.25;entryY=0;entryDx=0;entryDy=0;" edge="1" parent="tbruQ5mkqh9V9yy03NBL-39" source="tbruQ5mkqh9V9yy03NBL-45" target="tbruQ5mkqh9V9yy03NBL-46">
          <mxGeometry relative="1" as="geometry" />
        </mxCell>
        <mxCell id="tbruQ5mkqh9V9yy03NBL-45" value="Controllers" style="rounded=0;whiteSpace=wrap;html=1;verticalAlign=bottom;" vertex="1" parent="tbruQ5mkqh9V9yy03NBL-39">
          <mxGeometry x="380" y="130" width="160" height="60" as="geometry" />
        </mxCell>
        <mxCell id="tbruQ5mkqh9V9yy03NBL-62" style="edgeStyle=orthogonalEdgeStyle;rounded=0;orthogonalLoop=1;jettySize=auto;html=1;exitX=0.25;exitY=1;exitDx=0;exitDy=0;entryX=0.25;entryY=0;entryDx=0;entryDy=0;" edge="1" parent="tbruQ5mkqh9V9yy03NBL-39" source="tbruQ5mkqh9V9yy03NBL-46" target="tbruQ5mkqh9V9yy03NBL-57">
          <mxGeometry relative="1" as="geometry" />
        </mxCell>
        <mxCell id="tbruQ5mkqh9V9yy03NBL-64" style="edgeStyle=orthogonalEdgeStyle;rounded=0;orthogonalLoop=1;jettySize=auto;html=1;exitX=0.75;exitY=0;exitDx=0;exitDy=0;entryX=0.75;entryY=1;entryDx=0;entryDy=0;" edge="1" parent="tbruQ5mkqh9V9yy03NBL-39" source="tbruQ5mkqh9V9yy03NBL-46" target="tbruQ5mkqh9V9yy03NBL-45">
          <mxGeometry relative="1" as="geometry" />
        </mxCell>
        <mxCell id="tbruQ5mkqh9V9yy03NBL-46" value="Services" style="rounded=0;whiteSpace=wrap;html=1;" vertex="1" parent="tbruQ5mkqh9V9yy03NBL-39">
          <mxGeometry x="380" y="220" width="160" height="60" as="geometry" />
        </mxCell>
        <mxCell id="tbruQ5mkqh9V9yy03NBL-63" style="edgeStyle=orthogonalEdgeStyle;rounded=0;orthogonalLoop=1;jettySize=auto;html=1;exitX=0.75;exitY=0;exitDx=0;exitDy=0;entryX=0.75;entryY=1;entryDx=0;entryDy=0;" edge="1" parent="tbruQ5mkqh9V9yy03NBL-39" source="tbruQ5mkqh9V9yy03NBL-57" target="tbruQ5mkqh9V9yy03NBL-46">
          <mxGeometry relative="1" as="geometry" />
        </mxCell>
        <mxCell id="tbruQ5mkqh9V9yy03NBL-57" value="Repositories" style="rounded=0;whiteSpace=wrap;html=1;" vertex="1" parent="tbruQ5mkqh9V9yy03NBL-39">
          <mxGeometry x="380" y="320" width="160" height="60" as="geometry" />
        </mxCell>
        <mxCell id="tbruQ5mkqh9V9yy03NBL-58" style="edgeStyle=orthogonalEdgeStyle;rounded=0;orthogonalLoop=1;jettySize=auto;html=1;entryX=0.5;entryY=1;entryDx=0;entryDy=0;entryPerimeter=0;startArrow=classic;startFill=1;" edge="1" parent="tbruQ5mkqh9V9yy03NBL-39" source="tbruQ5mkqh9V9yy03NBL-57" target="tbruQ5mkqh9V9yy03NBL-40">
          <mxGeometry relative="1" as="geometry" />
        </mxCell>
        <mxCell id="tbruQ5mkqh9V9yy03NBL-60" value="Security" style="rounded=0;whiteSpace=wrap;html=1;fillColor=#f8cecc;strokeColor=#b85450;" vertex="1" parent="tbruQ5mkqh9V9yy03NBL-39">
          <mxGeometry x="380" y="130" width="160" height="30" as="geometry" />
        </mxCell>
        <mxCell id="tbruQ5mkqh9V9yy03NBL-67" style="edgeStyle=orthogonalEdgeStyle;rounded=0;orthogonalLoop=1;jettySize=auto;html=1;entryX=0;entryY=0.5;entryDx=0;entryDy=0;" edge="1" parent="tbruQ5mkqh9V9yy03NBL-39" source="tbruQ5mkqh9V9yy03NBL-66" target="tbruQ5mkqh9V9yy03NBL-42">
          <mxGeometry relative="1" as="geometry" />
        </mxCell>
        <mxCell id="tbruQ5mkqh9V9yy03NBL-66" value="Users" style="shape=umlActor;verticalLabelPosition=bottom;verticalAlign=top;html=1;outlineConnect=0;" vertex="1" parent="tbruQ5mkqh9V9yy03NBL-39">
          <mxGeometry x="30" y="210" width="30" height="60" as="geometry" />
        </mxCell>
        <mxCell id="tbruQ5mkqh9V9yy03NBL-68" value="&lt;h1&gt;Application Architecture&lt;/h1&gt;&lt;div&gt;&lt;br&gt;&lt;/div&gt;&lt;div style=&quot;font-size: 19px;&quot;&gt;&lt;font style=&quot;font-size: 19px;&quot;&gt;I-) Application Features&lt;/font&gt;&lt;/div&gt;&lt;div style=&quot;font-size: 19px;&quot;&gt;&lt;br&gt;&lt;/div&gt;&lt;div style=&quot;font-size: 17px;&quot;&gt;&lt;font style=&quot;font-size: 17px;&quot;&gt;Our implementation supports the following features:&amp;nbsp;&lt;/font&gt;&lt;/div&gt;&lt;div style=&quot;font-size: 17px;&quot;&gt;&lt;font style=&quot;font-size: 17px;&quot;&gt;&lt;br&gt;&lt;/font&gt;&lt;/div&gt;&lt;div style=&quot;font-size: 17px;&quot;&gt;&lt;font style=&quot;font-size: 17px;&quot;&gt;1. The user can register, log in to the application as well as log out from the application&lt;/font&gt;&lt;/div&gt;&lt;div style=&quot;font-size: 17px;&quot;&gt;&lt;font style=&quot;font-size: 17px;&quot;&gt;2. The user can create a notice and assign a Tag to it.&lt;/font&gt;&lt;/div&gt;&lt;div style=&quot;font-size: 17px;&quot;&gt;&lt;font style=&quot;font-size: 17px;&quot;&gt;3. The user can see all the notices he has created&lt;/font&gt;&lt;/div&gt;&lt;div style=&quot;font-size: 17px;&quot;&gt;&lt;font style=&quot;font-size: 17px;&quot;&gt;4. The user can filter the notices using tags or the creation date of the notice&lt;/font&gt;&lt;/div&gt;&lt;div&gt;&lt;br&gt;&lt;/div&gt;&lt;div&gt;&lt;br&gt;&lt;/div&gt;&lt;div&gt;&lt;br&gt;&lt;/div&gt;&lt;div&gt;&lt;div style=&quot;border-color: var(--border-color); font-size: 19px;&quot;&gt;&lt;font style=&quot;border-color: var(--border-color);&quot;&gt;II-) Architecture&lt;/font&gt;&lt;/div&gt;&lt;div style=&quot;border-color: var(--border-color); font-size: 19px;&quot;&gt;&lt;br&gt;&lt;/div&gt;&lt;div style=&quot;border-color: var(--border-color); font-size: 19px;&quot;&gt;The application is full-stack. The backend of the application is backed by spring boot. To allow user management and security access the application is secured using spring boot security. Moreover, the backend persists the application data into an H2 in-memory database, which is itself persisted to a file on our local machine. The in-memory database is persisted just to make the application more robust while keeping the technology stack minimal by suppressing the need for a standalone database. Finally, the user interacts with the application via a Thymeleaf front end. Below are the screenshots of all the different pages the user has access to when using our application.&amp;nbsp;&lt;/div&gt;&lt;div style=&quot;border-color: var(--border-color); font-size: 19px;&quot;&gt;&lt;br style=&quot;border-color: var(--border-color);&quot;&gt;&lt;/div&gt;&lt;/div&gt;" style="text;html=1;spacing=5;spacingTop=-20;whiteSpace=wrap;overflow=hidden;rounded=0;" vertex="1" parent="1">
          <mxGeometry x="40" y="1640" width="760" height="540" as="geometry" />
        </mxCell>
        <mxCell id="tbruQ5mkqh9V9yy03NBL-69" value="&lt;h1&gt;Screenshots&lt;/h1&gt;" style="text;html=1;spacing=5;spacingTop=-20;whiteSpace=wrap;overflow=hidden;rounded=0;" vertex="1" parent="1">
          <mxGeometry x="40" y="2280" width="760" height="120" as="geometry" />
        </mxCell>
      </root>
    </mxGraphModel>
  </diagram>
</mxfile>
